<svg
    width="100"
    height='100'
    viewBox="0 0 54 54"
    fill="none"
    xmlns="http://www.w3.org/2000/svg"
>
    <path
        d="M23.2668 39.2673L42.0668 20.4673L38.3335 16.734L23.2668 31.8006L15.6668 24.2006L11.9335 27.934L23.2668 39.2673ZM27.0002 53.6673C23.3113 53.6673 19.8446 52.9669 16.6002 51.566C13.3557 50.1669 10.5335 48.2673 8.1335 45.8673C5.7335 43.4673 3.83394 40.6451 2.43483 37.4006C1.03394 34.1562 0.333496 30.6895 0.333496 27.0006C0.333496 23.3118 1.03394 19.8451 2.43483 16.6007C3.83394 13.3562 5.7335 10.534 8.1335 8.13398C10.5335 5.73398 13.3557 3.83354 16.6002 2.43265C19.8446 1.03354 23.3113 0.333984 27.0002 0.333984C30.6891 0.333984 34.1557 1.03354 37.4002 2.43265C40.6446 3.83354 43.4668 5.73398 45.8668 8.13398C48.2668 10.534 50.1664 13.3562 51.5655 16.6007C52.9664 19.8451 53.6668 23.3118 53.6668 27.0006C53.6668 30.6895 52.9664 34.1562 51.5655 37.4006C50.1664 40.6451 48.2668 43.4673 45.8668 45.8673C43.4668 48.2673 40.6446 50.1669 37.4002 51.566C34.1557 52.9669 30.6891 53.6673 27.0002 53.6673ZM27.0002 48.334C32.9557 48.334 38.0002 46.2673 42.1335 42.134C46.2668 38.0006 48.3335 32.9562 48.3335 27.0006C48.3335 21.0451 46.2668 16.0006 42.1335 11.8673C38.0002 7.73398 32.9557 5.66732 27.0002 5.66732C21.0446 5.66732 16.0002 7.73398 11.8668 11.8673C7.7335 16.0006 5.66683 21.0451 5.66683 27.0006C5.66683 32.9562 7.7335 38.0006 11.8668 42.134C16.0002 46.2673 21.0446 48.334 27.0002 48.334Z"
        fill='#000000'
    />
</svg>